<svg version="1.1" xmlns="http://www.w3.org/2000/svg" xmlns:xlink="http://www.w3.org/1999/xlink" width="816" height="530"><style xmlns="http://www.w3.org/1999/xhtml"></style><defs/><g transform="translate(0,0)"><g><rect fill="#FFFFFF" stroke="none" x="0" y="0" width="816" height="530"/></g><g transform="translate(0,0) matrix(1,0,0,1,60,170)"><g><g><g><path fill="none" stroke="none" d="M 0 0 L 730 0 Q 730 0 730 0 L 730 340 Q 730 340 730 340 L 0 340 Q 0 340 0 340 L 0 0 Q 0 0 0 0 Z"/><g transform="scale(1,1)"><path fill="#cfe2f3" stroke="#000000" d="M 0 0 L 730 0 Q 730 0 730 0 L 730 340 Q 730 340 730 340 L 0 340 Q 0 340 0 340 L 0 0 Q 0 0 0 0 Z" stroke-miterlimit="10" stroke-width="2"/></g></g><g transform="translate(695,0) translate(0,5)"><g transform="translate(0,0) scale(0.3,0.2)"><g><path fill="#cfe2f3" stroke="none" d="M 10 0 L 100 0 Q 100 0 100 0 L 100 100 Q 100 100 100 100 L 10 100 Q 10 100 10 100 L 10 0 Q 10 0 10 0 Z"/><g transform="scale(3.333333,5)"><path fill="none" stroke="#000000" d="M 3 0 L 30 0 Q 30 0 30 0 L 30 20 Q 30 20 30 20 L 3 20 Q 3 20 3 20 L 3 0 Q 3 0 3 0 Z" stroke-miterlimit="10"/></g></g><g><path fill="#cfe2f3" stroke="none" d="M 0 16.67 L 20 16.67 Q 20 16.67 20 16.67 L 20 33.34 Q 20 33.34 20 33.34 L 0 33.34 Q 0 33.34 0 33.34 L 0 16.67 Q 0 16.67 0 16.67 Z"/><g transform="scale(3.333333,5)"><path fill="none" stroke="#000000" d="M 0 3.334 L 6 3.334 Q 6 3.334 6 3.334 L 6 6.668 Q 6 6.668 6 6.668 L 0 6.668 Q 0 6.668 0 6.668 L 0 3.334 Q 0 3.334 0 3.334 Z" stroke-miterlimit="10"/></g></g><g><path fill="#cfe2f3" stroke="none" d="M 0 66.67 L 20 66.67 Q 20 66.67 20 66.67 L 20 83.34 Q 20 83.34 20 83.34 L 0 83.34 Q 0 83.34 0 83.34 L 0 66.67 Q 0 66.67 0 66.67 Z"/><g transform="scale(3.333333,5)"><path fill="none" stroke="#000000" d="M 0 13.334 L 6 13.334 Q 6 13.334 6 13.334 L 6 16.668 Q 6 16.668 6 16.668 L 0 16.668 Q 0 16.668 0 16.668 L 0 13.334 Q 0 13.334 0 13.334 Z" stroke-miterlimit="10"/></g></g></g></g></g></g></g><g transform="translate(0,0) matrix(1,0,0,1,340,400)"><g><g transform="translate(0,0) scale(1.9,0.8)"><g><g><path fill="#FFFFFF" stroke="none" d="M 10 0 L 100 0 Q 100 0 100 0 L 100 100 Q 100 100 100 100 L 10 100 Q 10 100 10 100 L 10 0 Q 10 0 10 0 Z"/><g transform="scale(0.5263157894736842,1.25)"><path fill="none" stroke="#000000" d="M 19 0 L 190 0 Q 190 0 190 0 L 190 80 Q 190 80 190 80 L 19 80 Q 19 80 19 80 L 19 0 Q 19 0 19 0 Z" stroke-miterlimit="10" stroke-width="2"/></g></g><g><path fill="#FFFFFF" stroke="none" d="M 0 16.67 L 20 16.67 Q 20 16.67 20 16.67 L 20 33.34 Q 20 33.34 20 33.34 L 0 33.34 Q 0 33.34 0 33.34 L 0 16.67 Q 0 16.67 0 16.67 Z"/><g transform="scale(0.5263157894736842,1.25)"><path fill="none" stroke="#000000" d="M 0 13.336000000000002 L 38 13.336000000000002 Q 38 13.336000000000002 38 13.336000000000002 L 38 26.672000000000004 Q 38 26.672000000000004 38 26.672000000000004 L 0 26.672000000000004 Q 0 26.672000000000004 0 26.672000000000004 L 0 13.336000000000002 Q 0 13.336000000000002 0 13.336000000000002 Z" stroke-miterlimit="10" stroke-width="2"/></g></g><g><path fill="#FFFFFF" stroke="none" d="M 0 66.67 L 20 66.67 Q 20 66.67 20 66.67 L 20 83.34 Q 20 83.34 20 83.34 L 0 83.34 Q 0 83.34 0 83.34 L 0 66.67 Q 0 66.67 0 66.67 Z"/><g transform="scale(0.5263157894736842,1.25)"><path fill="none" stroke="#000000" d="M 0 53.336000000000006 L 38 53.336000000000006 Q 38 53.336000000000006 38 53.336000000000006 L 38 66.67200000000001 Q 38 66.67200000000001 38 66.67200000000001 L 0 66.67200000000001 Q 0 66.67200000000001 0 66.67200000000001 L 0 53.336000000000006 Q 0 53.336000000000006 0 53.336000000000006 Z" stroke-miterlimit="10" stroke-width="2"/></g></g></g></g></g></g><g transform="matrix(1,0,0,1,350,426)"><g><g/></g><g><g/></g><g><g/></g><g><g/><text fill="rgb(0, 0, 0)" stroke="none" font-family="&quot;Arial&quot;" font-size="12px" font-style="normal" font-weight="normal" text-decoration="" line-height="14px" x="68" y="11">V</text><text fill="rgb(0, 0, 0)" stroke="none" font-family="&quot;Arial&quot;" font-size="12px" font-style="normal" font-weight="normal" text-decoration="" line-height="14px" x="75" y="11">i</text><text fill="rgb(0, 0, 0)" stroke="none" font-family="&quot;Arial&quot;" font-size="12px" font-style="normal" font-weight="normal" text-decoration="" line-height="14px" x="78" y="11">a</text><text fill="rgb(0, 0, 0)" stroke="none" font-family="&quot;Arial&quot;" font-size="12px" font-style="normal" font-weight="normal" text-decoration="" line-height="14px" x="85" y="11">c</text><text fill="rgb(0, 0, 0)" stroke="none" font-family="&quot;Arial&quot;" font-size="12px" font-style="normal" font-weight="normal" text-decoration="" line-height="14px" x="91" y="11">a</text><text fill="rgb(0, 0, 0)" stroke="none" font-family="&quot;Arial&quot;" font-size="12px" font-style="normal" font-weight="normal" text-decoration="" line-height="14px" x="98" y="11">r</text></g><g><g/></g><g><g/></g><g><g/><text fill="rgb(0, 0, 0)" stroke="none" font-family="&quot;Arial&quot;" font-size="12px" font-style="normal" font-weight="normal" text-decoration="" line-height="14px" x="49.5" y="25">K</text><text fill="rgb(0, 0, 0)" stroke="none" font-family="&quot;Arial&quot;" font-size="12px" font-style="normal" font-weight="normal" text-decoration="" line-height="14px" x="57.5" y="25">o</text><text fill="rgb(0, 0, 0)" stroke="none" font-family="&quot;Arial&quot;" font-size="12px" font-style="normal" font-weight="normal" text-decoration="" line-height="14px" x="64.5" y="25">m</text><text fill="rgb(0, 0, 0)" stroke="none" font-family="&quot;Arial&quot;" font-size="12px" font-style="normal" font-weight="normal" text-decoration="" line-height="14px" x="75.5" y="25">p</text><text fill="rgb(0, 0, 0)" stroke="none" font-family="&quot;Arial&quot;" font-size="12px" font-style="normal" font-weight="normal" text-decoration="" line-height="14px" x="82.5" y="25">o</text><text fill="rgb(0, 0, 0)" stroke="none" font-family="&quot;Arial&quot;" font-size="12px" font-style="normal" font-weight="normal" text-decoration="" line-height="14px" x="89.5" y="25">n</text><text fill="rgb(0, 0, 0)" stroke="none" font-family="&quot;Arial&quot;" font-size="12px" font-style="normal" font-weight="normal" text-decoration="" line-height="14px" x="96.5" y="25">e</text><text fill="rgb(0, 0, 0)" stroke="none" font-family="&quot;Arial&quot;" font-size="12px" font-style="normal" font-weight="normal" text-decoration="" line-height="14px" x="103.5" y="25">n</text><text fill="rgb(0, 0, 0)" stroke="none" font-family="&quot;Arial&quot;" font-size="12px" font-style="normal" font-weight="normal" text-decoration="" line-height="14px" x="110.5" y="25">t</text><text fill="rgb(0, 0, 0)" stroke="none" font-family="&quot;Arial&quot;" font-size="12px" font-style="normal" font-weight="normal" text-decoration="" line-height="14px" x="113.5" y="25">e</text></g></g><g transform="translate(0,0) matrix(-1.8369701987210297e-16,-1,1,-1.8369701987210297e-16,110,110)"><g><g transform="translate(0,0) scale(0.3,0.3)"><g transform="translate(50,0) translate(0,0) rotate(89.99998127603168,0,0) translate(0,0)"><g><g transform="scale(3.3333333333333335,3.3333333333333335)"><path fill="rgb(0,0,0)" stroke="#000000" d="M 0 0 C 1.4141004e-15 11.547006 12.500001000000001 18.763884 22.5 12.990381000000001 C 27.141015 10.310889 30 5.3589839999999995 30 0" fill-opacity="0" stroke-miterlimit="10" stroke-width="2"/></g></g></g><g><path fill="#FFFFFF" stroke="none" d="M 97 50 A 41 41 0 1 0 96.9999795000017 50.04099999316668 Z"/><g transform="scale(3.3333333333333335,3.3333333333333335)"><path fill="none" stroke="#000000" d="M 16.8 2.700000000000001 C 23.59310181 2.700000000000001 29.1 8.20689819 29.1 15 C 29.1 21.79310181 23.59310181 27.299999999999997 16.8 27.299999999999997 C 10.006898190000001 27.299999999999997 4.500000000000002 21.79310181 4.500000000000002 15 C 4.500000000000002 8.20689819 10.006898190000001 2.700000000000001 16.8 2.700000000000001 Z" stroke-miterlimit="10" stroke-width="2"/></g></g></g></g></g><g transform="matrix(1,0,0,1,120.5,45.23450809915688)"><g transform="translate(0,0)"><g transform="translate(-124,-84) translate(3.5,38.76549190084312) matrix(1,0,0,1,0,0)"><g><path fill="none" stroke="#000000" d="M 125 80 L 125.00000000000003 49.73450809915688" stroke-miterlimit="10" stroke-width="2"/></g></g></g></g><g transform="translate(0,0) matrix(-1.8369701987210297e-16,-1,1,-1.8369701987210297e-16,260,114.76549190084312)"><g><g transform="translate(0,0) scale(0.3,0.3)"><g transform="translate(50,0) translate(0,0) rotate(89.99998127603168,0,0) translate(0,0)"><g><g transform="scale(3.3333333333333335,3.3333333333333335)"><path fill="rgb(0,0,0)" stroke="#000000" d="M 0 0 C 1.4141004e-15 11.547006 12.500001000000001 18.763884 22.5 12.990381000000001 C 27.141015 10.310889 30 5.3589839999999995 30 0" fill-opacity="0" stroke-miterlimit="10" stroke-width="2"/></g></g></g><g><path fill="#FFFFFF" stroke="none" d="M 97 50 A 41 41 0 1 0 96.9999795000017 50.04099999316668 Z"/><g transform="scale(3.3333333333333335,3.3333333333333335)"><path fill="none" stroke="#000000" d="M 16.8 2.700000000000001 C 23.59310181 2.700000000000001 29.1 8.20689819 29.1 15 C 29.1 21.79310181 23.59310181 27.299999999999997 16.8 27.299999999999997 C 10.006898190000001 27.299999999999997 4.500000000000002 21.79310181 4.500000000000002 15 C 4.500000000000002 8.20689819 10.006898190000001 2.700000000000001 16.8 2.700000000000001 Z" stroke-miterlimit="10" stroke-width="2"/></g></g></g></g></g><g transform="matrix(1,0,0,1,270.5,50)"><g transform="translate(0,0)"><g transform="translate(-274,-88.76549190084312) translate(3.5,38.76549190084312) matrix(1,0,0,1,0,0)"><g><path fill="none" stroke="#000000" d="M 275 84.76549190084312 L 275 54.5" stroke-miterlimit="10" stroke-width="2"/></g></g></g></g><g transform="translate(0,0) matrix(-1.8369701987210297e-16,-1,1,-1.8369701987210297e-16,410,119.53098380168623)"><g><g transform="translate(0,0) scale(0.3,0.3)"><g transform="translate(50,0) translate(0,0) rotate(89.99998127603168,0,0) translate(0,0)"><g><g transform="scale(3.3333333333333335,3.3333333333333335)"><path fill="rgb(0,0,0)" stroke="#000000" d="M 0 0 C 1.4141004e-15 11.547006 12.500001000000001 18.763884 22.5 12.990381000000001 C 27.141015 10.310889 30 5.3589839999999995 30 0" fill-opacity="0" stroke-miterlimit="10" stroke-width="2"/></g></g></g><g><path fill="#FFFFFF" stroke="none" d="M 97 50 A 41 41 0 1 0 96.9999795000017 50.04099999316668 Z"/><g transform="scale(3.3333333333333335,3.3333333333333335)"><path fill="none" stroke="#000000" d="M 16.8 2.700000000000001 C 23.59310181 2.700000000000001 29.1 8.20689819 29.1 15 C 29.1 21.79310181 23.59310181 27.299999999999997 16.8 27.299999999999997 C 10.006898190000001 27.299999999999997 4.500000000000002 21.79310181 4.500000000000002 15 C 4.500000000000002 8.20689819 10.006898190000001 2.700000000000001 16.8 2.700000000000001 Z" stroke-miterlimit="10" stroke-width="2"/></g></g></g></g></g><g transform="matrix(1,0,0,1,420.5,54.76549190084312)"><g transform="translate(0,0)"><g transform="translate(-424,-93.53098380168623) translate(3.5,38.76549190084312) matrix(1,0,0,1,0,0)"><g><path fill="none" stroke="#000000" d="M 425 89.53098380168623 L 425 59.26549190084312" stroke-miterlimit="10" stroke-width="2"/></g></g></g></g><g transform="translate(0,0) matrix(-1.8369701987210297e-16,-1,1,-1.8369701987210297e-16,570,114.76549190084312)"><g><g transform="translate(0,0) scale(0.3,0.3)"><g transform="translate(50,0) translate(0,0) rotate(89.99998127603168,0,0) translate(0,0)"><g><g transform="scale(3.3333333333333335,3.3333333333333335)"><path fill="rgb(0,0,0)" stroke="#000000" d="M 0 0 C 1.4141004e-15 11.547006 12.500001000000001 18.763884 22.5 12.990381000000001 C 27.141015 10.310889 30 5.3589839999999995 30 0" fill-opacity="0" stroke-miterlimit="10" stroke-width="2"/></g></g></g><g><path fill="#FFFFFF" stroke="none" d="M 97 50 A 41 41 0 1 0 96.9999795000017 50.04099999316668 Z"/><g transform="scale(3.3333333333333335,3.3333333333333335)"><path fill="none" stroke="#000000" d="M 16.8 2.700000000000001 C 23.59310181 2.700000000000001 29.1 8.20689819 29.1 15 C 29.1 21.79310181 23.59310181 27.299999999999997 16.8 27.299999999999997 C 10.006898190000001 27.299999999999997 4.500000000000002 21.79310181 4.500000000000002 15 C 4.500000000000002 8.20689819 10.006898190000001 2.700000000000001 16.8 2.700000000000001 Z" stroke-miterlimit="10" stroke-width="2"/></g></g></g></g></g><g transform="matrix(1,0,0,1,580.5,60)"><g transform="translate(0,0)"><g transform="translate(-584,-98.76549190084312) translate(3.5,38.76549190084312) matrix(1,0,0,1,0,0)"><g><path fill="none" stroke="#000000" d="M 585 84.76549190084312 L 585 64.5" stroke-miterlimit="10" stroke-width="2"/></g></g></g></g><g transform="translate(0,0) matrix(-1.8369701987210297e-16,-1,1,-1.8369701987210297e-16,720,114.76549190084312)"><g><g transform="translate(0,0) scale(0.3,0.3)"><g transform="translate(50,0) translate(0,0) rotate(89.99998127603168,0,0) translate(0,0)"><g><g transform="scale(3.3333333333333335,3.3333333333333335)"><path fill="rgb(0,0,0)" stroke="#000000" d="M 0 0 C 1.4141004e-15 11.547006 12.500001000000001 18.763884 22.5 12.990381000000001 C 27.141015 10.310889 30 5.3589839999999995 30 0" fill-opacity="0" stroke-miterlimit="10" stroke-width="2"/></g></g></g><g><path fill="#FFFFFF" stroke="none" d="M 97 50 A 41 41 0 1 0 96.9999795000017 50.04099999316668 Z"/><g transform="scale(3.3333333333333335,3.3333333333333335)"><path fill="none" stroke="#000000" d="M 16.8 2.700000000000001 C 23.59310181 2.700000000000001 29.1 8.20689819 29.1 15 C 29.1 21.79310181 23.59310181 27.299999999999997 16.8 27.299999999999997 C 10.006898190000001 27.299999999999997 4.500000000000002 21.79310181 4.500000000000002 15 C 4.500000000000002 8.20689819 10.006898190000001 2.700000000000001 16.8 2.700000000000001 Z" stroke-miterlimit="10" stroke-width="2"/></g></g></g></g></g><g transform="matrix(1,0,0,1,730.5,60)"><g transform="translate(0,0)"><g transform="translate(-734,-98.76549190084312) translate(3.5,38.76549190084312) matrix(1,0,0,1,0,0)"><g><path fill="none" stroke="#000000" d="M 735 84.76549190084312 L 735 64.5" stroke-miterlimit="10" stroke-width="2"/></g></g></g></g><g transform="translate(0,0) matrix(1,0,0,1,60,10)"><g><g transform="translate(0,0) scale(1.2,0.6)"><g><g><path fill="#d9ead3" stroke="none" d="M 10 0 L 100 0 Q 100 0 100 0 L 100 100 Q 100 100 100 100 L 10 100 Q 10 100 10 100 L 10 0 Q 10 0 10 0 Z"/><g transform="scale(0.8333333333333334,1.6666666666666667)"><path fill="none" stroke="#000000" d="M 12 0 L 120 0 Q 120 0 120 0 L 120 60 Q 120 60 120 60 L 12 60 Q 12 60 12 60 L 12 0 Q 12 0 12 0 Z" stroke-miterlimit="10" stroke-width="2"/></g></g><g><path fill="#d9ead3" stroke="none" d="M 0 16.67 L 20 16.67 Q 20 16.67 20 16.67 L 20 33.34 Q 20 33.34 20 33.34 L 0 33.34 Q 0 33.34 0 33.34 L 0 16.67 Q 0 16.67 0 16.67 Z"/><g transform="scale(0.8333333333333334,1.6666666666666667)"><path fill="none" stroke="#000000" d="M 0 10.002 L 24 10.002 Q 24 10.002 24 10.002 L 24 20.004 Q 24 20.004 24 20.004 L 0 20.004 Q 0 20.004 0 20.004 L 0 10.002 Q 0 10.002 0 10.002 Z" stroke-miterlimit="10" stroke-width="2"/></g></g><g><path fill="#d9ead3" stroke="none" d="M 0 66.67 L 20 66.67 Q 20 66.67 20 66.67 L 20 83.34 Q 20 83.34 20 83.34 L 0 83.34 Q 0 83.34 0 83.34 L 0 66.67 Q 0 66.67 0 66.67 Z"/><g transform="scale(0.8333333333333334,1.6666666666666667)"><path fill="none" stroke="#000000" d="M 0 40.002 L 24 40.002 Q 24 40.002 24 40.002 L 24 50.004000000000005 Q 24 50.004000000000005 24 50.004000000000005 L 0 50.004000000000005 Q 0 50.004000000000005 0 50.004000000000005 L 0 40.002 Q 0 40.002 0 40.002 Z" stroke-miterlimit="10" stroke-width="2"/></g></g></g></g></g></g><g transform="matrix(1,0,0,1,70,33)"><g><g/></g><g><g/></g><g><g/></g><g><g/><text fill="rgb(0, 0, 0)" stroke="none" font-family="&quot;Arial&quot;" font-size="12px" font-style="normal" font-weight="normal" text-decoration="" line-height="14px" x="9" y="11">A</text><text fill="rgb(0, 0, 0)" stroke="none" font-family="&quot;Arial&quot;" font-size="12px" font-style="normal" font-weight="normal" text-decoration="" line-height="14px" x="16" y="11">c</text><text fill="rgb(0, 0, 0)" stroke="none" font-family="&quot;Arial&quot;" font-size="12px" font-style="normal" font-weight="normal" text-decoration="" line-height="14px" x="22" y="11">t</text><text fill="rgb(0, 0, 0)" stroke="none" font-family="&quot;Arial&quot;" font-size="12px" font-style="normal" font-weight="normal" text-decoration="" line-height="14px" x="25" y="11">i</text><text fill="rgb(0, 0, 0)" stroke="none" font-family="&quot;Arial&quot;" font-size="12px" font-style="normal" font-weight="normal" text-decoration="" line-height="14px" x="28" y="11">v</text><text fill="rgb(0, 0, 0)" stroke="none" font-family="&quot;Arial&quot;" font-size="12px" font-style="normal" font-weight="normal" text-decoration="" line-height="14px" x="33" y="11">e</text><text fill="rgb(0, 0, 0)" stroke="none" font-family="&quot;Arial&quot;" font-size="12px" font-style="normal" font-weight="normal" text-decoration="" line-height="14px" x="43" y="11">D</text><text fill="rgb(0, 0, 0)" stroke="none" font-family="&quot;Arial&quot;" font-size="12px" font-style="normal" font-weight="normal" text-decoration="" line-height="14px" x="52" y="11">i</text><text fill="rgb(0, 0, 0)" stroke="none" font-family="&quot;Arial&quot;" font-size="12px" font-style="normal" font-weight="normal" text-decoration="" line-height="14px" x="55" y="11">r</text><text fill="rgb(0, 0, 0)" stroke="none" font-family="&quot;Arial&quot;" font-size="12px" font-style="normal" font-weight="normal" text-decoration="" line-height="14px" x="59" y="11">e</text><text fill="rgb(0, 0, 0)" stroke="none" font-family="&quot;Arial&quot;" font-size="12px" font-style="normal" font-weight="normal" text-decoration="" line-height="14px" x="66" y="11">c</text><text fill="rgb(0, 0, 0)" stroke="none" font-family="&quot;Arial&quot;" font-size="12px" font-style="normal" font-weight="normal" text-decoration="" line-height="14px" x="72" y="11">t</text><text fill="rgb(0, 0, 0)" stroke="none" font-family="&quot;Arial&quot;" font-size="12px" font-style="normal" font-weight="normal" text-decoration="" line-height="14px" x="75" y="11">o</text><text fill="rgb(0, 0, 0)" stroke="none" font-family="&quot;Arial&quot;" font-size="12px" font-style="normal" font-weight="normal" text-decoration="" line-height="14px" x="82" y="11">r</text><text fill="rgb(0, 0, 0)" stroke="none" font-family="&quot;Arial&quot;" font-size="12px" font-style="normal" font-weight="normal" text-decoration="" line-height="14px" x="86" y="11">y</text></g></g><g transform="translate(0,0) matrix(1,0,0,1,365,10)"><g><g transform="translate(0,0) scale(1.2,0.6)"><g><g><path fill="#d9ead3" stroke="none" d="M 10 0 L 100 0 Q 100 0 100 0 L 100 100 Q 100 100 100 100 L 10 100 Q 10 100 10 100 L 10 0 Q 10 0 10 0 Z"/><g transform="scale(0.8333333333333334,1.6666666666666667)"><path fill="none" stroke="#000000" d="M 12 0 L 120 0 Q 120 0 120 0 L 120 60 Q 120 60 120 60 L 12 60 Q 12 60 12 60 L 12 0 Q 12 0 12 0 Z" stroke-miterlimit="10" stroke-width="2"/></g></g><g><path fill="#d9ead3" stroke="none" d="M 0 16.67 L 20 16.67 Q 20 16.67 20 16.67 L 20 33.34 Q 20 33.34 20 33.34 L 0 33.34 Q 0 33.34 0 33.34 L 0 16.67 Q 0 16.67 0 16.67 Z"/><g transform="scale(0.8333333333333334,1.6666666666666667)"><path fill="none" stroke="#000000" d="M 0 10.002 L 24 10.002 Q 24 10.002 24 10.002 L 24 20.004 Q 24 20.004 24 20.004 L 0 20.004 Q 0 20.004 0 20.004 L 0 10.002 Q 0 10.002 0 10.002 Z" stroke-miterlimit="10" stroke-width="2"/></g></g><g><path fill="#d9ead3" stroke="none" d="M 0 66.67 L 20 66.67 Q 20 66.67 20 66.67 L 20 83.34 Q 20 83.34 20 83.34 L 0 83.34 Q 0 83.34 0 83.34 L 0 66.67 Q 0 66.67 0 66.67 Z"/><g transform="scale(0.8333333333333334,1.6666666666666667)"><path fill="none" stroke="#000000" d="M 0 40.002 L 24 40.002 Q 24 40.002 24 40.002 L 24 50.004000000000005 Q 24 50.004000000000005 24 50.004000000000005 L 0 50.004000000000005 Q 0 50.004000000000005 0 50.004000000000005 L 0 40.002 Q 0 40.002 0 40.002 Z" stroke-miterlimit="10" stroke-width="2"/></g></g></g></g></g></g><g transform="matrix(1,0,0,1,375,26)"><g><g/></g><g><g/></g><g><g/></g><g><g/><text fill="rgb(0, 0, 0)" stroke="none" font-family="&quot;Arial&quot;" font-size="12px" font-style="normal" font-weight="normal" text-decoration="" line-height="14px" x="13" y="11">e</text><text fill="rgb(0, 0, 0)" stroke="none" font-family="&quot;Arial&quot;" font-size="12px" font-style="normal" font-weight="normal" text-decoration="" line-height="14px" x="20" y="11">G</text><text fill="rgb(0, 0, 0)" stroke="none" font-family="&quot;Arial&quot;" font-size="12px" font-style="normal" font-weight="normal" text-decoration="" line-height="14px" x="29" y="11">o</text><text fill="rgb(0, 0, 0)" stroke="none" font-family="&quot;Arial&quot;" font-size="12px" font-style="normal" font-weight="normal" text-decoration="" line-height="14px" x="36" y="11">v</text><text fill="rgb(0, 0, 0)" stroke="none" font-family="&quot;Arial&quot;" font-size="12px" font-style="normal" font-weight="normal" text-decoration="" line-height="14px" x="41" y="11">e</text><text fill="rgb(0, 0, 0)" stroke="none" font-family="&quot;Arial&quot;" font-size="12px" font-style="normal" font-weight="normal" text-decoration="" line-height="14px" x="48" y="11">r</text><text fill="rgb(0, 0, 0)" stroke="none" font-family="&quot;Arial&quot;" font-size="12px" font-style="normal" font-weight="normal" text-decoration="" line-height="14px" x="52" y="11">n</text><text fill="rgb(0, 0, 0)" stroke="none" font-family="&quot;Arial&quot;" font-size="12px" font-style="normal" font-weight="normal" text-decoration="" line-height="14px" x="59" y="11">m</text><text fill="rgb(0, 0, 0)" stroke="none" font-family="&quot;Arial&quot;" font-size="12px" font-style="normal" font-weight="normal" text-decoration="" line-height="14px" x="70" y="11">e</text><text fill="rgb(0, 0, 0)" stroke="none" font-family="&quot;Arial&quot;" font-size="12px" font-style="normal" font-weight="normal" text-decoration="" line-height="14px" x="77" y="11">n</text><text fill="rgb(0, 0, 0)" stroke="none" font-family="&quot;Arial&quot;" font-size="12px" font-style="normal" font-weight="normal" text-decoration="" line-height="14px" x="84" y="11">t</text></g><g><g/></g><g><g/></g><g><g/><text fill="rgb(0, 0, 0)" stroke="none" font-family="&quot;Arial&quot;" font-size="12px" font-style="normal" font-weight="normal" text-decoration="" line-height="14px" x="34" y="25">P</text><text fill="rgb(0, 0, 0)" stroke="none" font-family="&quot;Arial&quot;" font-size="12px" font-style="normal" font-weight="normal" text-decoration="" line-height="14px" x="42" y="25">o</text><text fill="rgb(0, 0, 0)" stroke="none" font-family="&quot;Arial&quot;" font-size="12px" font-style="normal" font-weight="normal" text-decoration="" line-height="14px" x="49" y="25">r</text><text fill="rgb(0, 0, 0)" stroke="none" font-family="&quot;Arial&quot;" font-size="12px" font-style="normal" font-weight="normal" text-decoration="" line-height="14px" x="53" y="25">t</text><text fill="rgb(0, 0, 0)" stroke="none" font-family="&quot;Arial&quot;" font-size="12px" font-style="normal" font-weight="normal" text-decoration="" line-height="14px" x="56" y="25">a</text><text fill="rgb(0, 0, 0)" stroke="none" font-family="&quot;Arial&quot;" font-size="12px" font-style="normal" font-weight="normal" text-decoration="" line-height="14px" x="63" y="25">l</text></g></g><g transform="translate(0,0) matrix(1,0,0,1,520,10)"><g><g transform="translate(0,0) scale(1.2,0.6)"><g><g><path fill="#d9ead3" stroke="none" d="M 10 0 L 100 0 Q 100 0 100 0 L 100 100 Q 100 100 100 100 L 10 100 Q 10 100 10 100 L 10 0 Q 10 0 10 0 Z"/><g transform="scale(0.8333333333333334,1.6666666666666667)"><path fill="none" stroke="#000000" d="M 12 0 L 120 0 Q 120 0 120 0 L 120 60 Q 120 60 120 60 L 12 60 Q 12 60 12 60 L 12 0 Q 12 0 12 0 Z" stroke-miterlimit="10" stroke-width="2"/></g></g><g><path fill="#d9ead3" stroke="none" d="M 0 16.67 L 20 16.67 Q 20 16.67 20 16.67 L 20 33.34 Q 20 33.34 20 33.34 L 0 33.34 Q 0 33.34 0 33.34 L 0 16.67 Q 0 16.67 0 16.67 Z"/><g transform="scale(0.8333333333333334,1.6666666666666667)"><path fill="none" stroke="#000000" d="M 0 10.002 L 24 10.002 Q 24 10.002 24 10.002 L 24 20.004 Q 24 20.004 24 20.004 L 0 20.004 Q 0 20.004 0 20.004 L 0 10.002 Q 0 10.002 0 10.002 Z" stroke-miterlimit="10" stroke-width="2"/></g></g><g><path fill="#d9ead3" stroke="none" d="M 0 66.67 L 20 66.67 Q 20 66.67 20 66.67 L 20 83.34 Q 20 83.34 20 83.34 L 0 83.34 Q 0 83.34 0 83.34 L 0 66.67 Q 0 66.67 0 66.67 Z"/><g transform="scale(0.8333333333333334,1.6666666666666667)"><path fill="none" stroke="#000000" d="M 0 40.002 L 24 40.002 Q 24 40.002 24 40.002 L 24 50.004000000000005 Q 24 50.004000000000005 24 50.004000000000005 L 0 50.004000000000005 Q 0 50.004000000000005 0 50.004000000000005 L 0 40.002 Q 0 40.002 0 40.002 Z" stroke-miterlimit="10" stroke-width="2"/></g></g></g></g></g></g><g transform="matrix(1,0,0,1,530,32)"><g><g/></g><g><g/></g><g><g/><text fill="rgb(0, 0, 0)" stroke="none" font-family="&quot;Arial&quot;" font-size="12px" font-style="normal" font-weight="normal" text-decoration="" line-height="15.5px" x="23" y="11.75">S</text><text fill="rgb(0, 0, 0)" stroke="none" font-family="&quot;Arial&quot;" font-size="12px" font-style="normal" font-weight="normal" text-decoration="" line-height="15.5px" x="31" y="11.75">u</text><text fill="rgb(0, 0, 0)" stroke="none" font-family="&quot;Arial&quot;" font-size="12px" font-style="normal" font-weight="normal" text-decoration="" line-height="15.5px" x="38" y="11.75">i</text><text fill="rgb(0, 0, 0)" stroke="none" font-family="&quot;Arial&quot;" font-size="12px" font-style="normal" font-weight="normal" text-decoration="" line-height="15.5px" x="41" y="11.75">s</text><text fill="rgb(0, 0, 0)" stroke="none" font-family="&quot;Arial&quot;" font-size="12px" font-style="normal" font-weight="normal" text-decoration="" line-height="15.5px" x="48" y="11.75">s</text><text fill="rgb(0, 0, 0)" stroke="none" font-family="&quot;Arial&quot;" font-size="12px" font-style="normal" font-weight="normal" text-decoration="" line-height="15.5px" x="55" y="11.75">e</text><text fill="rgb(0, 0, 0)" stroke="none" font-family="&quot;Arial&quot;" font-size="12px" font-style="normal" font-weight="normal" text-decoration="" line-height="15.5px" x="65" y="11.75">I</text><text fill="rgb(0, 0, 0)" stroke="none" font-family="&quot;Arial&quot;" font-size="12px" font-style="normal" font-weight="normal" text-decoration="" line-height="15.5px" x="68" y="11.75">D</text></g></g><g transform="translate(0,0) matrix(1,0,0,1,210,10)"><g><g transform="translate(0,0) scale(1.2,0.6)"><g><g><path fill="#d9ead3" stroke="none" d="M 10 0 L 100 0 Q 100 0 100 0 L 100 100 Q 100 100 100 100 L 10 100 Q 10 100 10 100 L 10 0 Q 10 0 10 0 Z"/><g transform="scale(0.8333333333333334,1.6666666666666667)"><path fill="none" stroke="#000000" d="M 12 0 L 120 0 Q 120 0 120 0 L 120 60 Q 120 60 120 60 L 12 60 Q 12 60 12 60 L 12 0 Q 12 0 12 0 Z" stroke-miterlimit="10" stroke-width="2"/></g></g><g><path fill="#d9ead3" stroke="none" d="M 0 16.67 L 20 16.67 Q 20 16.67 20 16.67 L 20 33.34 Q 20 33.34 20 33.34 L 0 33.34 Q 0 33.34 0 33.34 L 0 16.67 Q 0 16.67 0 16.67 Z"/><g transform="scale(0.8333333333333334,1.6666666666666667)"><path fill="none" stroke="#000000" d="M 0 10.002 L 24 10.002 Q 24 10.002 24 10.002 L 24 20.004 Q 24 20.004 24 20.004 L 0 20.004 Q 0 20.004 0 20.004 L 0 10.002 Q 0 10.002 0 10.002 Z" stroke-miterlimit="10" stroke-width="2"/></g></g><g><path fill="#d9ead3" stroke="none" d="M 0 66.67 L 20 66.67 Q 20 66.67 20 66.67 L 20 83.34 Q 20 83.34 20 83.34 L 0 83.34 Q 0 83.34 0 83.34 L 0 66.67 Q 0 66.67 0 66.67 Z"/><g transform="scale(0.8333333333333334,1.6666666666666667)"><path fill="none" stroke="#000000" d="M 0 40.002 L 24 40.002 Q 24 40.002 24 40.002 L 24 50.004000000000005 Q 24 50.004000000000005 24 50.004000000000005 L 0 50.004000000000005 Q 0 50.004000000000005 0 50.004000000000005 L 0 40.002 Q 0 40.002 0 40.002 Z" stroke-miterlimit="10" stroke-width="2"/></g></g></g></g></g></g><g transform="matrix(1,0,0,1,220,32)"><g><g/></g><g><g/></g><g><g/><text fill="rgb(0, 0, 0)" stroke="none" font-family="&quot;Arial&quot;" font-size="12px" font-style="normal" font-weight="normal" text-decoration="" line-height="15.5px" x="34.5" y="11.75">L</text><text fill="rgb(0, 0, 0)" stroke="none" font-family="&quot;Arial&quot;" font-size="12px" font-style="normal" font-weight="normal" text-decoration="" line-height="15.5px" x="41.5" y="11.75">D</text><text fill="rgb(0, 0, 0)" stroke="none" font-family="&quot;Arial&quot;" font-size="12px" font-style="normal" font-weight="normal" text-decoration="" line-height="15.5px" x="50.5" y="11.75">A</text><text fill="rgb(0, 0, 0)" stroke="none" font-family="&quot;Arial&quot;" font-size="12px" font-style="normal" font-weight="normal" text-decoration="" line-height="15.5px" x="57.5" y="11.75">P</text></g></g><g transform="translate(0,0) matrix(1,0,0,1,670,10)"><g><g transform="translate(0,0) scale(1.2,0.6)"><g><g><path fill="#d9ead3" stroke="none" d="M 10 0 L 100 0 Q 100 0 100 0 L 100 100 Q 100 100 100 100 L 10 100 Q 10 100 10 100 L 10 0 Q 10 0 10 0 Z"/><g transform="scale(0.8333333333333334,1.6666666666666667)"><path fill="none" stroke="#000000" d="M 12 0 L 120 0 Q 120 0 120 0 L 120 60 Q 120 60 120 60 L 12 60 Q 12 60 12 60 L 12 0 Q 12 0 12 0 Z" stroke-miterlimit="10" stroke-width="2"/></g></g><g><path fill="#d9ead3" stroke="none" d="M 0 16.67 L 20 16.67 Q 20 16.67 20 16.67 L 20 33.34 Q 20 33.34 20 33.34 L 0 33.34 Q 0 33.34 0 33.34 L 0 16.67 Q 0 16.67 0 16.67 Z"/><g transform="scale(0.8333333333333334,1.6666666666666667)"><path fill="none" stroke="#000000" d="M 0 10.002 L 24 10.002 Q 24 10.002 24 10.002 L 24 20.004 Q 24 20.004 24 20.004 L 0 20.004 Q 0 20.004 0 20.004 L 0 10.002 Q 0 10.002 0 10.002 Z" stroke-miterlimit="10" stroke-width="2"/></g></g><g><path fill="#d9ead3" stroke="none" d="M 0 66.67 L 20 66.67 Q 20 66.67 20 66.67 L 20 83.34 Q 20 83.34 20 83.34 L 0 83.34 Q 0 83.34 0 83.34 L 0 66.67 Q 0 66.67 0 66.67 Z"/><g transform="scale(0.8333333333333334,1.6666666666666667)"><path fill="none" stroke="#000000" d="M 0 40.002 L 24 40.002 Q 24 40.002 24 40.002 L 24 50.004000000000005 Q 24 50.004000000000005 24 50.004000000000005 L 0 50.004000000000005 Q 0 50.004000000000005 0 50.004000000000005 L 0 40.002 Q 0 40.002 0 40.002 Z" stroke-miterlimit="10" stroke-width="2"/></g></g></g></g></g></g><g transform="matrix(1,0,0,1,680,32)"><g><g/></g><g><g/></g><g><g/><text fill="rgb(0, 0, 0)" stroke="none" font-family="&quot;Arial&quot;" font-size="12px" font-style="normal" font-weight="normal" text-decoration="" line-height="15.5px" x="45.5" y="11.75">.</text><text fill="rgb(0, 0, 0)" stroke="none" font-family="&quot;Arial&quot;" font-size="12px" font-style="normal" font-weight="normal" text-decoration="" line-height="15.5px" x="48.5" y="11.75">.</text><text fill="rgb(0, 0, 0)" stroke="none" font-family="&quot;Arial&quot;" font-size="12px" font-style="normal" font-weight="normal" text-decoration="" line-height="15.5px" x="51.5" y="11.75">.</text></g></g><g transform="matrix(1,0,0,1,120.5,105.5)"><g transform="translate(0,0)"><g transform="translate(-120,-110) translate(-0.5,4.5) matrix(1,0,0,1,0,0)"><g><path fill="none" stroke="#000000" d="M 125 110 L 125 140 Q 125 150 135 150 L 415 150 Q 425 150 425 160 L 425 190" stroke-miterlimit="10" stroke-width="2"/></g></g></g></g><g transform="matrix(1,0,0,1,270.5,110.26549190084312)"><g transform="translate(0,0)"><g transform="translate(-275,-115) translate(4.5,4.7345080991568835) matrix(1,0,0,1,0,0)"><g><path fill="none" stroke="#000000" d="M 275 114.76549190084312 L 275 141.38274595042157 Q 275 151.38274595042157 285 151.38274595042157 L 415 151.38274595042157 Q 425 151.38274595042157 425 161.38274595042157 L 425 190" stroke-miterlimit="10" stroke-width="2"/></g></g></g></g><g transform="matrix(1,0,0,1,420.5,115.03098380168623)"><g transform="translate(0,0)"><g transform="translate(-428,-121) translate(7.5,5.969016198313767) matrix(1,0,0,1,0,0)"><g><path fill="none" stroke="#000000" d="M 425 119.53098380168623 L 425 133.02065586779082 Q 425 143.02065586779082 425 153.02065586779082 L 425 156.5103279338954 Q 425 166.5103279338954 425 176.5103279338954 L 425 190" stroke-miterlimit="10" stroke-width="2"/></g></g></g></g><g transform="matrix(1,0,0,1,420.5,110.26549190084312)"><g transform="translate(0,0)"><g transform="translate(-585,-119) translate(164.5,8.734508099156884) matrix(1,0,0,1,0,0)"><g><path fill="none" stroke="#000000" d="M 585 114.76549190084312 L 585 142.38274595042157 Q 585 152.38274595042157 575 152.38274595042157 L 435 152.38274595042157 Q 425 152.38274595042157 425 162.38274595042157 L 425 190" stroke-miterlimit="10" stroke-width="2"/></g></g></g></g><g transform="matrix(1,0,0,1,420.5,110.26549190084312)"><g transform="translate(0,0)"><g transform="translate(-733,-118) translate(312.5,7.7345080991568835) matrix(1,0,0,1,0,0)"><g><path fill="none" stroke="#000000" d="M 735 114.76549190084312 L 735 142.38274595042157 Q 735 152.38274595042157 725 152.38274595042157 L 435 152.38274595042157 Q 425 152.38274595042157 425 162.38274595042157 L 425 190" stroke-miterlimit="10" stroke-width="2"/></g></g></g></g><g transform="matrix(1,0,0,1,595,176)"><g><g/></g><g><g/></g><g><g/></g><g><g/><text fill="rgb(0, 0, 0)" stroke="none" font-family="&quot;Arial&quot;" font-size="12px" font-style="normal" font-weight="normal" text-decoration="" line-height="14px" x="112" y="11">Viacar</text></g></g><g transform="translate(0,0) matrix(1,0,0,1,620,200)"><g><g transform="translate(0,0) scale(1.2,0.6)"><g><g><path fill="#fff2cc" stroke="none" d="M 10 0 L 100 0 Q 100 0 100 0 L 100 100 Q 100 100 100 100 L 10 100 Q 10 100 10 100 L 10 0 Q 10 0 10 0 Z"/><g transform="scale(0.8333333333333334,1.6666666666666667)"><path fill="none" stroke="#000000" d="M 12 0 L 120 0 Q 120 0 120 0 L 120 60 Q 120 60 120 60 L 12 60 Q 12 60 12 60 L 12 0 Q 12 0 12 0 Z" stroke-miterlimit="10" stroke-width="2"/></g></g><g><path fill="#fff2cc" stroke="none" d="M 0 16.67 L 20 16.67 Q 20 16.67 20 16.67 L 20 33.34 Q 20 33.34 20 33.34 L 0 33.34 Q 0 33.34 0 33.34 L 0 16.67 Q 0 16.67 0 16.67 Z"/><g transform="scale(0.8333333333333334,1.6666666666666667)"><path fill="none" stroke="#000000" d="M 0 10.002 L 24 10.002 Q 24 10.002 24 10.002 L 24 20.004 Q 24 20.004 24 20.004 L 0 20.004 Q 0 20.004 0 20.004 L 0 10.002 Q 0 10.002 0 10.002 Z" stroke-miterlimit="10" stroke-width="2"/></g></g><g><path fill="#fff2cc" stroke="none" d="M 0 66.67 L 20 66.67 Q 20 66.67 20 66.67 L 20 83.34 Q 20 83.34 20 83.34 L 0 83.34 Q 0 83.34 0 83.34 L 0 66.67 Q 0 66.67 0 66.67 Z"/><g transform="scale(0.8333333333333334,1.6666666666666667)"><path fill="none" stroke="#000000" d="M 0 40.002 L 24 40.002 Q 24 40.002 24 40.002 L 24 50.004000000000005 Q 24 50.004000000000005 24 50.004000000000005 L 0 50.004000000000005 Q 0 50.004000000000005 0 50.004000000000005 L 0 40.002 Q 0 40.002 0 40.002 Z" stroke-miterlimit="10" stroke-width="2"/></g></g></g></g></g></g><g transform="matrix(1,0,0,1,630,216)"><g><g/></g><g><g/></g><g><g/></g><g><g/><text fill="rgb(0, 0, 0)" stroke="none" font-family="&quot;Arial&quot;" font-size="12px" font-style="normal" font-weight="normal" text-decoration="" line-height="14px" x="17" y="11">s</text><text fill="rgb(0, 0, 0)" stroke="none" font-family="&quot;Arial&quot;" font-size="12px" font-style="normal" font-weight="normal" text-decoration="" line-height="14px" x="24" y="11">u</text><text fill="rgb(0, 0, 0)" stroke="none" font-family="&quot;Arial&quot;" font-size="12px" font-style="normal" font-weight="normal" text-decoration="" line-height="14px" x="31" y="11">b</text><text fill="rgb(0, 0, 0)" stroke="none" font-family="&quot;Arial&quot;" font-size="12px" font-style="normal" font-weight="normal" text-decoration="" line-height="14px" x="38" y="11">s</text><text fill="rgb(0, 0, 0)" stroke="none" font-family="&quot;Arial&quot;" font-size="12px" font-style="normal" font-weight="normal" text-decoration="" line-height="14px" x="45" y="11">i</text><text fill="rgb(0, 0, 0)" stroke="none" font-family="&quot;Arial&quot;" font-size="12px" font-style="normal" font-weight="normal" text-decoration="" line-height="14px" x="48" y="11">d</text><text fill="rgb(0, 0, 0)" stroke="none" font-family="&quot;Arial&quot;" font-size="12px" font-style="normal" font-weight="normal" text-decoration="" line-height="14px" x="55" y="11">i</text><text fill="rgb(0, 0, 0)" stroke="none" font-family="&quot;Arial&quot;" font-size="12px" font-style="normal" font-weight="normal" text-decoration="" line-height="14px" x="58" y="11">ä</text><text fill="rgb(0, 0, 0)" stroke="none" font-family="&quot;Arial&quot;" font-size="12px" font-style="normal" font-weight="normal" text-decoration="" line-height="14px" x="65" y="11">r</text><text fill="rgb(0, 0, 0)" stroke="none" font-family="&quot;Arial&quot;" font-size="12px" font-style="normal" font-weight="normal" text-decoration="" line-height="14px" x="69" y="11">e</text><text fill="rgb(0, 0, 0)" stroke="none" font-family="&quot;Arial&quot;" font-size="12px" font-style="normal" font-weight="normal" text-decoration="" line-height="14px" x="76" y="11">s</text></g><g><g/></g><g><g/></g><g><g/><text fill="rgb(0, 0, 0)" stroke="none" font-family="&quot;Arial&quot;" font-size="12px" font-style="normal" font-weight="normal" text-decoration="" line-height="14px" x="40.5" y="25">I</text><text fill="rgb(0, 0, 0)" stroke="none" font-family="&quot;Arial&quot;" font-size="12px" font-style="normal" font-weight="normal" text-decoration="" line-height="14px" x="43.5" y="25">A</text><text fill="rgb(0, 0, 0)" stroke="none" font-family="&quot;Arial&quot;" font-size="12px" font-style="normal" font-weight="normal" text-decoration="" line-height="14px" x="50.5" y="25">M</text></g></g><g transform="translate(0,0) matrix(1,0,0,1,560,215)"><g><g transform="translate(0,0) scale(0.3,0.3)"><g transform="translate(50,0) translate(0,0) rotate(89.99998127603168,0,0) translate(0,0)"><g><g transform="scale(3.3333333333333335,3.3333333333333335)"><path fill="rgb(0,0,0)" stroke="#000000" d="M 0 0 C 1.4141004e-15 11.547006 12.500001000000001 18.763884 22.5 12.990381000000001 C 27.141015 10.310889 30 5.3589839999999995 30 0" fill-opacity="0" stroke-miterlimit="10" stroke-width="2"/></g></g></g><g><path fill="#FFFFFF" stroke="none" d="M 97 50 A 41 41 0 1 0 96.9999795000017 50.04099999316668 Z"/><g transform="scale(3.3333333333333335,3.3333333333333335)"><path fill="none" stroke="#000000" d="M 16.8 2.700000000000001 C 23.59310181 2.700000000000001 29.1 8.20689819 29.1 15 C 29.1 21.79310181 23.59310181 27.299999999999997 16.8 27.299999999999997 C 10.006898190000001 27.299999999999997 4.500000000000002 21.79310181 4.500000000000002 15 C 4.500000000000002 8.20689819 10.006898190000001 2.700000000000001 16.8 2.700000000000001 Z" stroke-miterlimit="10" stroke-width="2"/></g></g></g></g></g><g transform="matrix(1,0,0,1,477.23428028020214,214.89339828220176)"><g transform="translate(0,0)"><g transform="translate(-528,-235) translate(50.76571971979786,20.10660171779824) matrix(1,0,0,1,0,0)"><g><path fill="none" stroke="#000000" d="M 560 230 L 502.8671401401011 230 Q 492.8671401401011 230 492.8671401401011 224.69669914110088 L 492.8671401401011 224.69669914110088 Q 492.8671401401011 219.39339828220176 487.30071021015164 219.39339828220176 L 481.73428028020214 219.39339828220176" stroke-miterlimit="10" stroke-width="2"/></g></g></g></g><g transform="matrix(1,0,0,1,584.988887394336,224.6177143234622)"><g transform="translate(0,0)"><g transform="translate(-568,-238) translate(-16.98888739433596,13.382285676537805) matrix(1,0,0,1,0,0)"><g><path fill="none" stroke="#000000" d="M 589.488887394336 229.1177143234622 L 597.178166190612 229.1177143234622 Q 604.867444986888 229.1177143234622 604.867444986888 229.1177143234622 L 604.867444986888 229.1177143234622 Q 604.867444986888 229.1177143234622 612.556723783164 229.1177143234622 L 620.2460025794401 229.1177143234622" stroke-miterlimit="10" stroke-width="2"/></g></g></g></g><g transform="translate(0,0) matrix(-1.8369701987210297e-16,-1,1,-1.8369701987210297e-16,370,310)"><g><g transform="translate(0,0) scale(0.3,0.3)"><g transform="translate(50,0) translate(0,0) rotate(89.99998127603168,0,0) translate(0,0)"><g><g transform="scale(3.3333333333333335,3.3333333333333335)"><path fill="rgb(0,0,0)" stroke="#000000" d="M 0 0 C 1.4141004e-15 11.547006 12.500001000000001 18.763884 22.5 12.990381000000001 C 27.141015 10.310889 30 5.3589839999999995 30 0" fill-opacity="0" stroke-miterlimit="10" stroke-width="2"/></g></g></g><g><path fill="#FFFFFF" stroke="none" d="M 97 50 A 41 41 0 1 0 96.9999795000017 50.04099999316668 Z"/><g transform="scale(3.3333333333333335,3.3333333333333335)"><path fill="none" stroke="#000000" d="M 16.8 2.700000000000001 C 23.59310181 2.700000000000001 29.1 8.20689819 29.1 15 C 29.1 21.79310181 23.59310181 27.299999999999997 16.8 27.299999999999997 C 10.006898190000001 27.299999999999997 4.500000000000002 21.79310181 4.500000000000002 15 C 4.500000000000002 8.20689819 10.006898190000001 2.700000000000001 16.8 2.700000000000001 Z" stroke-miterlimit="10" stroke-width="2"/></g></g></g></g></g><g transform="translate(0,0) matrix(-1.8369701987210297e-16,-1,1,-1.8369701987210297e-16,460,310)"><g><g transform="translate(0,0) scale(0.3,0.3)"><g transform="translate(50,0) translate(0,0) rotate(89.99998127603168,0,0) translate(0,0)"><g><g transform="scale(3.3333333333333335,3.3333333333333335)"><path fill="rgb(0,0,0)" stroke="#000000" d="M 0 0 C 1.4141004e-15 11.547006 12.500001000000001 18.763884 22.5 12.990381000000001 C 27.141015 10.310889 30 5.3589839999999995 30 0" fill-opacity="0" stroke-miterlimit="10" stroke-width="2"/></g></g></g><g><path fill="#FFFFFF" stroke="none" d="M 97 50 A 41 41 0 1 0 96.9999795000017 50.04099999316668 Z"/><g transform="scale(3.3333333333333335,3.3333333333333335)"><path fill="none" stroke="#000000" d="M 16.8 2.700000000000001 C 23.59310181 2.700000000000001 29.1 8.20689819 29.1 15 C 29.1 21.79310181 23.59310181 27.299999999999997 16.8 27.299999999999997 C 10.006898190000001 27.299999999999997 4.500000000000002 21.79310181 4.500000000000002 15 C 4.500000000000002 8.20689819 10.006898190000001 2.700000000000001 16.8 2.700000000000001 Z" stroke-miterlimit="10" stroke-width="2"/></g></g></g></g></g><g transform="matrix(1,0,0,1,212,280)"><g><g/></g><g><g/></g><g><g/></g><g><g/><text fill="rgb(0, 0, 0)" stroke="none" font-family="&quot;Arial&quot;" font-size="12px" font-style="normal" font-weight="normal" text-decoration="" line-height="14px" x="38" y="11.75">Authorization</text></g><g><g/><text fill="rgb(0, 0, 0)" stroke="none" font-family="&quot;Arial&quot;" font-size="12px" font-style="normal" font-weight="normal" text-decoration="" line-height="15.5px" x="111" y="11.75">Server</text></g><g><g/></g><g><g/></g><g><g/><text fill="rgb(0, 0, 0)" stroke="none" font-family="&quot;Arial&quot;" font-size="12px" font-style="normal" font-weight="normal" text-decoration="" line-height="14px" x="107" y="26.5">(</text><text fill="rgb(0, 0, 0)" stroke="none" font-family="&quot;Arial&quot;" font-size="12px" font-style="normal" font-weight="normal" text-decoration="" line-height="14px" x="111" y="26.5">Login</text><text fill="rgb(0, 0, 0)" stroke="none" font-family="&quot;Arial&quot;" font-size="12px" font-style="normal" font-weight="normal" text-decoration="" line-height="14px" x="142" y="26.5">)</text></g></g><g transform="matrix(1,0,0,1,502,280)"><g><g/></g><g><g/></g><g><g/><text fill="rgb(0, 0, 0)" stroke="none" font-family="&quot;Arial&quot;" font-size="12px" font-style="normal" font-weight="normal" text-decoration="" line-height="15.5px" x="0" y="11.75">UserInfo</text></g><g><g/></g><g><g/><text fill="rgb(0, 0, 0)" stroke="none" font-family="&quot;Arial&quot;" font-size="12px" font-style="normal" font-weight="normal" text-decoration="" line-height="15.5px" x="0" y="27.25">(</text><text fill="rgb(0, 0, 0)" stroke="none" font-family="&quot;Arial&quot;" font-size="12px" font-style="normal" font-weight="normal" text-decoration="" line-height="15.5px" x="4" y="27.25">Benutzerinformationen</text><text fill="rgb(0, 0, 0)" stroke="none" font-family="&quot;Arial&quot;" font-size="12px" font-style="normal" font-weight="normal" text-decoration="" line-height="15.5px" x="128" y="27.25">)</text></g></g><g transform="matrix(1,0,0,1,380.5,250.42012759203112)"><g transform="translate(0,0)"><g transform="translate(-384,-280) translate(3.5,29.579872407968878) matrix(1,0,0,1,0,0)"><g><path fill="none" stroke="#000000" d="M 385 280 L 385 254.92012759203112" stroke-miterlimit="10" stroke-width="2"/></g></g></g></g><g transform="matrix(1,0,0,1,470.5,245.23450809915687)"><g transform="translate(0,0)"><g transform="translate(-479,-286) translate(8.5,40.76549190084313) matrix(1,0,0,1,0,0)"><g><path fill="none" stroke="#000000" d="M 475 280 L 475.00000000000006 249.73450809915687" stroke-miterlimit="10" stroke-width="2"/></g></g></g></g><g transform="translate(0,0) matrix(1,0,0,1,330,190)"><g><g transform="translate(0,0) scale(1.9,0.8)"><g><g><path fill="#fff2cc" stroke="none" d="M 10 0 L 100 0 Q 100 0 100 0 L 100 100 Q 100 100 100 100 L 10 100 Q 10 100 10 100 L 10 0 Q 10 0 10 0 Z"/><g transform="scale(0.5263157894736842,1.25)"><path fill="none" stroke="#000000" d="M 19 0 L 190 0 Q 190 0 190 0 L 190 80 Q 190 80 190 80 L 19 80 Q 19 80 19 80 L 19 0 Q 19 0 19 0 Z" stroke-miterlimit="10" stroke-width="2"/></g></g><g><path fill="#fff2cc" stroke="none" d="M 0 16.67 L 20 16.67 Q 20 16.67 20 16.67 L 20 33.34 Q 20 33.34 20 33.34 L 0 33.34 Q 0 33.34 0 33.34 L 0 16.67 Q 0 16.67 0 16.67 Z"/><g transform="scale(0.5263157894736842,1.25)"><path fill="none" stroke="#000000" d="M 0 13.336000000000002 L 38 13.336000000000002 Q 38 13.336000000000002 38 13.336000000000002 L 38 26.672000000000004 Q 38 26.672000000000004 38 26.672000000000004 L 0 26.672000000000004 Q 0 26.672000000000004 0 26.672000000000004 L 0 13.336000000000002 Q 0 13.336000000000002 0 13.336000000000002 Z" stroke-miterlimit="10" stroke-width="2"/></g></g><g><path fill="#fff2cc" stroke="none" d="M 0 66.67 L 20 66.67 Q 20 66.67 20 66.67 L 20 83.34 Q 20 83.34 20 83.34 L 0 83.34 Q 0 83.34 0 83.34 L 0 66.67 Q 0 66.67 0 66.67 Z"/><g transform="scale(0.5263157894736842,1.25)"><path fill="none" stroke="#000000" d="M 0 53.336000000000006 L 38 53.336000000000006 Q 38 53.336000000000006 38 53.336000000000006 L 38 66.67200000000001 Q 38 66.67200000000001 38 66.67200000000001 L 0 66.67200000000001 Q 0 66.67200000000001 0 66.67200000000001 L 0 53.336000000000006 Q 0 53.336000000000006 0 53.336000000000006 Z" stroke-miterlimit="10" stroke-width="2"/></g></g></g></g></g></g><g transform="matrix(1,0,0,1,341,223)"><g><g/></g><g><g/></g><g><g/></g><g><g/><text fill="rgb(0, 0, 0)" stroke="none" font-family="&quot;Arial&quot;" font-size="12px" font-style="normal" font-weight="normal" text-decoration="" line-height="14px" x="43.33332824707031" y="11">I</text><text fill="rgb(0, 0, 0)" stroke="none" font-family="&quot;Arial&quot;" font-size="12px" font-style="normal" font-weight="normal" text-decoration="" line-height="14px" x="46.33332824707031" y="11">A</text><text fill="rgb(0, 0, 0)" stroke="none" font-family="&quot;Arial&quot;" font-size="12px" font-style="normal" font-weight="normal" text-decoration="" line-height="14px" x="53.33332824707031" y="11">M</text><text fill="rgb(0, 0, 0)" stroke="none" font-family="&quot;Arial&quot;" font-size="12px" font-style="normal" font-weight="normal" text-decoration="" line-height="14px" x="65.33332824707031" y="11">A</text><text fill="rgb(0, 0, 0)" stroke="none" font-family="&quot;Arial&quot;" font-size="12px" font-style="normal" font-weight="normal" text-decoration="" line-height="14px" x="72.33332824707031" y="11">n</text><text fill="rgb(0, 0, 0)" stroke="none" font-family="&quot;Arial&quot;" font-size="12px" font-style="normal" font-weight="normal" text-decoration="" line-height="14px" x="79.33332824707031" y="11">b</text><text fill="rgb(0, 0, 0)" stroke="none" font-family="&quot;Arial&quot;" font-size="12px" font-style="normal" font-weight="normal" text-decoration="" line-height="14px" x="86.33332824707031" y="11">i</text><text fill="rgb(0, 0, 0)" stroke="none" font-family="&quot;Arial&quot;" font-size="12px" font-style="normal" font-weight="normal" text-decoration="" line-height="14px" x="89.33332824707031" y="11">n</text><text fill="rgb(0, 0, 0)" stroke="none" font-family="&quot;Arial&quot;" font-size="12px" font-style="normal" font-weight="normal" text-decoration="" line-height="14px" x="96.33332824707031" y="11">d</text><text fill="rgb(0, 0, 0)" stroke="none" font-family="&quot;Arial&quot;" font-size="12px" font-style="normal" font-weight="normal" text-decoration="" line-height="14px" x="103.33332824707031" y="11">u</text><text fill="rgb(0, 0, 0)" stroke="none" font-family="&quot;Arial&quot;" font-size="12px" font-style="normal" font-weight="normal" text-decoration="" line-height="14px" x="110.33332824707031" y="11">n</text><text fill="rgb(0, 0, 0)" stroke="none" font-family="&quot;Arial&quot;" font-size="12px" font-style="normal" font-weight="normal" text-decoration="" line-height="14px" x="117.33332824707031" y="11">g</text></g></g><g transform="matrix(1,0,0,1,470.5,305.5)"><g transform="translate(0,0)"><g transform="translate(-472,-309) translate(1.5,3.5) matrix(1,0,0,1,0,0)"><g><path fill="none" stroke="#000000" d="M 475 310 L 475 466.00320509528" stroke-miterlimit="10" stroke-width="2"/></g></g></g></g><g transform="matrix(1,0,0,1,380.5,305.5)"><g transform="translate(0,0)"><g transform="translate(-386,-316) translate(5.5,10.5) matrix(1,0,0,1,0,0)"><g><path fill="none" stroke="#000000" d="M 385 310 L 385 464.0032467190222" stroke-miterlimit="10" stroke-width="2"/></g></g></g></g><g transform="translate(0,0) matrix(1,0,0,1,330,410)"><g><g transform="translate(0,0) scale(1.9,0.8)"><g><g><path fill="#FFFFFF" stroke="none" d="M 10 0 L 100 0 Q 100 0 100 0 L 100 100 Q 100 100 100 100 L 10 100 Q 10 100 10 100 L 10 0 Q 10 0 10 0 Z"/><g transform="scale(0.5263157894736842,1.25)"><path fill="none" stroke="#000000" d="M 19 0 L 190 0 Q 190 0 190 0 L 190 80 Q 190 80 190 80 L 19 80 Q 19 80 19 80 L 19 0 Q 19 0 19 0 Z" stroke-miterlimit="10" stroke-width="2"/></g></g><g><path fill="#FFFFFF" stroke="none" d="M 0 16.67 L 20 16.67 Q 20 16.67 20 16.67 L 20 33.34 Q 20 33.34 20 33.34 L 0 33.34 Q 0 33.34 0 33.34 L 0 16.67 Q 0 16.67 0 16.67 Z"/><g transform="scale(0.5263157894736842,1.25)"><path fill="none" stroke="#000000" d="M 0 13.336000000000002 L 38 13.336000000000002 Q 38 13.336000000000002 38 13.336000000000002 L 38 26.672000000000004 Q 38 26.672000000000004 38 26.672000000000004 L 0 26.672000000000004 Q 0 26.672000000000004 0 26.672000000000004 L 0 13.336000000000002 Q 0 13.336000000000002 0 13.336000000000002 Z" stroke-miterlimit="10" stroke-width="2"/></g></g><g><path fill="#FFFFFF" stroke="none" d="M 0 66.67 L 20 66.67 Q 20 66.67 20 66.67 L 20 83.34 Q 20 83.34 20 83.34 L 0 83.34 Q 0 83.34 0 83.34 L 0 66.67 Q 0 66.67 0 66.67 Z"/><g transform="scale(0.5263157894736842,1.25)"><path fill="none" stroke="#000000" d="M 0 53.336000000000006 L 38 53.336000000000006 Q 38 53.336000000000006 38 53.336000000000006 L 38 66.67200000000001 Q 38 66.67200000000001 38 66.67200000000001 L 0 66.67200000000001 Q 0 66.67200000000001 0 66.67200000000001 L 0 53.336000000000006 Q 0 53.336000000000006 0 53.336000000000006 Z" stroke-miterlimit="10" stroke-width="2"/></g></g></g></g></g></g><g transform="matrix(1,0,0,1,340,436)"><g><g/></g><g><g/></g><g><g/></g><g><g/><text fill="rgb(0, 0, 0)" stroke="none" font-family="&quot;Arial&quot;" font-size="12px" font-style="normal" font-weight="normal" text-decoration="" line-height="14px" x="68" y="11">V</text><text fill="rgb(0, 0, 0)" stroke="none" font-family="&quot;Arial&quot;" font-size="12px" font-style="normal" font-weight="normal" text-decoration="" line-height="14px" x="75" y="11">i</text><text fill="rgb(0, 0, 0)" stroke="none" font-family="&quot;Arial&quot;" font-size="12px" font-style="normal" font-weight="normal" text-decoration="" line-height="14px" x="78" y="11">a</text><text fill="rgb(0, 0, 0)" stroke="none" font-family="&quot;Arial&quot;" font-size="12px" font-style="normal" font-weight="normal" text-decoration="" line-height="14px" x="85" y="11">c</text><text fill="rgb(0, 0, 0)" stroke="none" font-family="&quot;Arial&quot;" font-size="12px" font-style="normal" font-weight="normal" text-decoration="" line-height="14px" x="91" y="11">a</text><text fill="rgb(0, 0, 0)" stroke="none" font-family="&quot;Arial&quot;" font-size="12px" font-style="normal" font-weight="normal" text-decoration="" line-height="14px" x="98" y="11">r</text></g><g><g/></g><g><g/></g><g><g/><text fill="rgb(0, 0, 0)" stroke="none" font-family="&quot;Arial&quot;" font-size="12px" font-style="normal" font-weight="normal" text-decoration="" line-height="14px" x="49.5" y="25">K</text><text fill="rgb(0, 0, 0)" stroke="none" font-family="&quot;Arial&quot;" font-size="12px" font-style="normal" font-weight="normal" text-decoration="" line-height="14px" x="57.5" y="25">o</text><text fill="rgb(0, 0, 0)" stroke="none" font-family="&quot;Arial&quot;" font-size="12px" font-style="normal" font-weight="normal" text-decoration="" line-height="14px" x="64.5" y="25">m</text><text fill="rgb(0, 0, 0)" stroke="none" font-family="&quot;Arial&quot;" font-size="12px" font-style="normal" font-weight="normal" text-decoration="" line-height="14px" x="75.5" y="25">p</text><text fill="rgb(0, 0, 0)" stroke="none" font-family="&quot;Arial&quot;" font-size="12px" font-style="normal" font-weight="normal" text-decoration="" line-height="14px" x="82.5" y="25">o</text><text fill="rgb(0, 0, 0)" stroke="none" font-family="&quot;Arial&quot;" font-size="12px" font-style="normal" font-weight="normal" text-decoration="" line-height="14px" x="89.5" y="25">n</text><text fill="rgb(0, 0, 0)" stroke="none" font-family="&quot;Arial&quot;" font-size="12px" font-style="normal" font-weight="normal" text-decoration="" line-height="14px" x="96.5" y="25">e</text><text fill="rgb(0, 0, 0)" stroke="none" font-family="&quot;Arial&quot;" font-size="12px" font-style="normal" font-weight="normal" text-decoration="" line-height="14px" x="103.5" y="25">n</text><text fill="rgb(0, 0, 0)" stroke="none" font-family="&quot;Arial&quot;" font-size="12px" font-style="normal" font-weight="normal" text-decoration="" line-height="14px" x="110.5" y="25">t</text><text fill="rgb(0, 0, 0)" stroke="none" font-family="&quot;Arial&quot;" font-size="12px" font-style="normal" font-weight="normal" text-decoration="" line-height="14px" x="113.5" y="25">e</text></g></g></g></svg>