<svg version="1.1" xmlns="http://www.w3.org/2000/svg" xmlns:xlink="http://www.w3.org/1999/xlink" width="686" height="716"><style xmlns="http://www.w3.org/1999/xhtml"></style><defs/><g transform="translate(0,0)"><g><rect fill="#ffffff" stroke="none" x="0" y="0" width="686" height="716"/></g><g transform="translate(0,0) matrix(1,0,0,1,354.5,77.5)"><g><g transform="translate(0,0) scale(2.75,2.75)"><g><path fill="#38761d" stroke="none" d="M 0 0 L 100 0 Q 100 0 100 0 L 100 100 Q 100 100 100 100 L 0 100 Q 0 100 0 100 L 0 0 Q 0 0 0 0 Z"/><g transform="scale(0.36363636363636365,0.36363636363636365)"><path fill="none" stroke="none" d="M 0 0 L 275 0 Q 275 0 275 0 L 275 275 Q 275 275 275 275 L 0 275 Q 0 275 0 275 L 0 0 Q 0 0 0 0 Z"/><path fill="none" stroke="rgb(0,0,0)" d="M 0 0 M 0 0 L 275 0 Q 275 0 275 0 L 275 275 Q 275 275 275 275 L 0 275 Q 0 275 0 275 L 0 0 Q 0 0 0 0 Z" stroke-opacity="0" stroke-miterlimit="10" stroke-width="0"/></g></g></g></g></g><g transform="translate(0,0) matrix(1,0,0,1,354.5,372.5)"><g><g transform="translate(0,0) scale(2.75,2.75)"><g><path fill="#e69138" stroke="none" d="M 0 0 L 100 0 Q 100 0 100 0 L 100 100 Q 100 100 100 100 L 0 100 Q 0 100 0 100 L 0 0 Q 0 0 0 0 Z"/><g transform="scale(0.36363636363636365,0.36363636363636365)"><path fill="none" stroke="none" d="M 0 0 L 275 0 Q 275 0 275 0 L 275 275 Q 275 275 275 275 L 0 275 Q 0 275 0 275 L 0 0 Q 0 0 0 0 Z"/><path fill="none" stroke="rgb(0,0,0)" d="M 0 0 M 0 0 L 275 0 Q 275 0 275 0 L 275 275 Q 275 275 275 275 L 0 275 Q 0 275 0 275 L 0 0 Q 0 0 0 0 Z" stroke-opacity="0" stroke-miterlimit="10" stroke-width="0"/></g></g></g></g></g><g transform="translate(0,0) matrix(1,0,0,1,63.5,370.5)"><g><g transform="translate(0,0) scale(2.75,2.75)"><g><path fill="#990000" stroke="none" d="M 0 0 L 100 0 Q 100 0 100 0 L 100 100 Q 100 100 100 100 L 0 100 Q 0 100 0 100 L 0 0 Q 0 0 0 0 Z"/><g transform="scale(0.36363636363636365,0.36363636363636365)"><path fill="none" stroke="none" d="M 0 0 L 275 0 Q 275 0 275 0 L 275 275 Q 275 275 275 275 L 0 275 Q 0 275 0 275 L 0 0 Q 0 0 0 0 Z"/><path fill="none" stroke="rgb(0,0,0)" d="M 0 0 M 0 0 L 275 0 Q 275 0 275 0 L 275 275 Q 275 275 275 275 L 0 275 Q 0 275 0 275 L 0 0 Q 0 0 0 0 Z" stroke-opacity="0" stroke-miterlimit="10" stroke-width="0"/></g></g></g></g></g><g transform="translate(0,0) matrix(1,0,0,1,62.5,77.5)"><g><g transform="translate(0,0) scale(2.75,2.75)"><g><path fill="#0b5394" stroke="none" d="M 0 0 L 100 0 Q 100 0 100 0 L 100 100 Q 100 100 100 100 L 0 100 Q 0 100 0 100 L 0 0 Q 0 0 0 0 Z"/><g transform="scale(0.36363636363636365,0.36363636363636365)"><path fill="none" stroke="none" d="M 0 0 L 275 0 Q 275 0 275 0 L 275 275 Q 275 275 275 275 L 0 275 Q 0 275 0 275 L 0 0 Q 0 0 0 0 Z"/><path fill="none" stroke="rgb(0,0,0)" d="M 0 0 M 0 0 L 275 0 Q 275 0 275 0 L 275 275 Q 275 275 275 275 L 0 275 Q 0 275 0 275 L 0 0 Q 0 0 0 0 Z" stroke-opacity="0" stroke-miterlimit="10" stroke-width="0"/></g></g></g></g></g><g transform="matrix(1,0,0,1,82,458)"><g><g/></g><g><g/></g><g><g/><text fill="rgb(255, 255, 255)" stroke="none" font-family="&quot;Arial&quot;" font-size="24px" font-style="normal" font-weight="700" text-decoration="" line-height="27px" x="0" y="21.5">Problem</text></g></g><g transform="matrix(1,0,0,1,379,458)"><g><g/></g><g><g/></g><g><g/><text fill="rgb(255, 255, 255)" stroke="none" font-family="&quot;Arial&quot;" font-size="24px" font-style="normal" font-weight="700" text-decoration="" line-height="27px" x="0" y="21.5">Fragment</text></g></g><g transform="matrix(1,0,0,1,82,165)"><g><g/></g><g><g/></g><g><g/><text fill="rgb(255, 255, 255)" stroke="none" font-family="&quot;Arial&quot;" font-size="24px" font-style="normal" font-weight="700" text-decoration="" line-height="27px" x="0" y="21.5">Isolated</text></g></g><g transform="matrix(1,0,0,1,379,165)"><g><g/></g><g><g/></g><g><g/><text fill="rgb(255, 255, 255)" stroke="none" font-family="&quot;Arial&quot;" font-size="24px" font-style="normal" font-weight="700" text-decoration="" line-height="27px" x="0" y="21.5">Optimum</text></g></g><g transform="matrix(1,0,0,1,250,88)"><g><g/></g><g><g/></g><g><g/></g><g><g/><text fill="rgb(217, 217, 217)" stroke="none" font-family="&quot;Helvetica&quot;" font-size="48px" font-style="normal" font-weight="normal" text-decoration="" line-height="48px" x="36.08332824707031" y="40.5">I</text></g></g><g transform="matrix(1,0,0,1,542,88)"><g><g/></g><g><g/></g><g><g/></g><g><g/><text fill="rgb(217, 217, 217)" stroke="none" font-family="&quot;Helvetica&quot;" font-size="48px" font-style="normal" font-weight="normal" text-decoration="" line-height="48px" x="24.083328247070312" y="40.5">O</text></g></g><g transform="matrix(-1.8369701987210297e-16,-1,1,-1.8369701987210297e-16,12,573)"><g><g/></g><g><g/></g><g><g/></g><g><g/><text fill="rgb(0, 0, 0)" stroke="none" font-family="&quot;Arial&quot;" font-size="24px" font-style="normal" font-weight="700" text-decoration="" line-height="27px" x="25.633331298828125" y="21.5">E</text><text fill="rgb(0, 0, 0)" stroke="none" font-family="&quot;Arial&quot;" font-size="24px" font-style="normal" font-weight="700" text-decoration="" line-height="27px" x="41.633331298828125" y="21.5">x</text><text fill="rgb(0, 0, 0)" stroke="none" font-family="&quot;Arial&quot;" font-size="24px" font-style="normal" font-weight="700" text-decoration="" line-height="27px" x="54.98333740234375" y="21.5">t</text><text fill="rgb(0, 0, 0)" stroke="none" font-family="&quot;Arial&quot;" font-size="24px" font-style="normal" font-weight="700" text-decoration="" line-height="27px" x="62.98333740234375" y="21.5">e</text><text fill="rgb(0, 0, 0)" stroke="none" font-family="&quot;Arial&quot;" font-size="24px" font-style="normal" font-weight="700" text-decoration="" line-height="27px" x="76.33332824707031" y="21.5">r</text><text fill="rgb(0, 0, 0)" stroke="none" font-family="&quot;Arial&quot;" font-size="24px" font-style="normal" font-weight="700" text-decoration="" line-height="27px" x="85.66667175292969" y="21.5">n</text><text fill="rgb(0, 0, 0)" stroke="none" font-family="&quot;Arial&quot;" font-size="24px" font-style="normal" font-weight="700" text-decoration="" line-height="27px" x="100.33332824707031" y="21.5">a</text><text fill="rgb(0, 0, 0)" stroke="none" font-family="&quot;Arial&quot;" font-size="24px" font-style="normal" font-weight="700" text-decoration="" line-height="27px" x="113.68333435058594" y="21.5">l</text></g></g><g transform="matrix(1,0,0,1,13,11)"><g><g/></g><g><g/></g><g><g/></g><g><g/><text fill="rgb(0, 0, 0)" stroke="none" font-family="&quot;Arial&quot;" font-size="36px" font-style="normal" font-weight="normal" text-decoration="" line-height="41px" x="163.4499969482422" y="33">A</text><text fill="rgb(0, 0, 0)" stroke="none" font-family="&quot;Arial&quot;" font-size="36px" font-style="normal" font-weight="normal" text-decoration="" line-height="41px" x="187.46665954589844" y="33">r</text><text fill="rgb(0, 0, 0)" stroke="none" font-family="&quot;Arial&quot;" font-size="36px" font-style="normal" font-weight="normal" text-decoration="" line-height="41px" x="199.4499969482422" y="33">c</text><text fill="rgb(0, 0, 0)" stroke="none" font-family="&quot;Arial&quot;" font-size="36px" font-style="normal" font-weight="normal" text-decoration="" line-height="41px" x="217.4499969482422" y="33">h</text><text fill="rgb(0, 0, 0)" stroke="none" font-family="&quot;Arial&quot;" font-size="36px" font-style="normal" font-weight="normal" text-decoration="" line-height="41px" x="237.46665954589844" y="33">i</text><text fill="rgb(0, 0, 0)" stroke="none" font-family="&quot;Arial&quot;" font-size="36px" font-style="normal" font-weight="normal" text-decoration="" line-height="41px" x="245.46665954589844" y="33">t</text><text fill="rgb(0, 0, 0)" stroke="none" font-family="&quot;Arial&quot;" font-size="36px" font-style="normal" font-weight="normal" text-decoration="" line-height="41px" x="255.46665954589844" y="33">e</text><text fill="rgb(0, 0, 0)" stroke="none" font-family="&quot;Arial&quot;" font-size="36px" font-style="normal" font-weight="normal" text-decoration="" line-height="41px" x="275.48333740234375" y="33">k</text><text fill="rgb(0, 0, 0)" stroke="none" font-family="&quot;Arial&quot;" font-size="36px" font-style="normal" font-weight="normal" text-decoration="" line-height="41px" x="293.48333740234375" y="33">t</text><text fill="rgb(0, 0, 0)" stroke="none" font-family="&quot;Arial&quot;" font-size="36px" font-style="normal" font-weight="normal" text-decoration="" line-height="41px" x="303.48333740234375" y="33">u</text><text fill="rgb(0, 0, 0)" stroke="none" font-family="&quot;Arial&quot;" font-size="36px" font-style="normal" font-weight="normal" text-decoration="" line-height="41px" x="323.5" y="33">r</text><text fill="rgb(0, 0, 0)" stroke="none" font-family="&quot;Arial&quot;" font-size="36px" font-style="normal" font-weight="normal" text-decoration="" line-height="41px" x="345.48333740234375" y="33">S</text><text fill="rgb(0, 0, 0)" stroke="none" font-family="&quot;Arial&quot;" font-size="36px" font-style="normal" font-weight="normal" text-decoration="" line-height="41px" x="369.5" y="33">t</text><text fill="rgb(0, 0, 0)" stroke="none" font-family="&quot;Arial&quot;" font-size="36px" font-style="normal" font-weight="normal" text-decoration="" line-height="41px" x="379.5" y="33">r</text><text fill="rgb(0, 0, 0)" stroke="none" font-family="&quot;Arial&quot;" font-size="36px" font-style="normal" font-weight="normal" text-decoration="" line-height="41px" x="391.48333740234375" y="33">a</text><text fill="rgb(0, 0, 0)" stroke="none" font-family="&quot;Arial&quot;" font-size="36px" font-style="normal" font-weight="normal" text-decoration="" line-height="41px" x="411.5" y="33">t</text><text fill="rgb(0, 0, 0)" stroke="none" font-family="&quot;Arial&quot;" font-size="36px" font-style="normal" font-weight="normal" text-decoration="" line-height="41px" x="421.5" y="33">e</text><text fill="rgb(0, 0, 0)" stroke="none" font-family="&quot;Arial&quot;" font-size="36px" font-style="normal" font-weight="normal" text-decoration="" line-height="41px" x="441.51666259765625" y="33">g</text><text fill="rgb(0, 0, 0)" stroke="none" font-family="&quot;Arial&quot;" font-size="36px" font-style="normal" font-weight="normal" text-decoration="" line-height="41px" x="461.5333251953125" y="33">i</text><text fill="rgb(0, 0, 0)" stroke="none" font-family="&quot;Arial&quot;" font-size="36px" font-style="normal" font-weight="normal" text-decoration="" line-height="41px" x="469.5333251953125" y="33">e</text></g></g><g transform="translate(0,0) matrix(-0.002564094135141616,-0.9999967127052299,0.9999967127052299,-0.002564094135141616,13.705125887163689,647.0508397415563)"><g><g transform="translate(0,0) scale(5.67,0.4)"><g><path fill="#d9d9d9" stroke="none" d="M 0 0 L 100 0 Q 100 0 100 0 L 100 100 Q 100 100 100 100 L 0 100 Q 0 100 0 100 L 0 0 Q 0 0 0 0 Z"/><g transform="scale(0.1763668430335097,2.5)"><path fill="none" stroke="none" d="M 0 0 L 567 0 Q 567 0 567 0 L 567 40 Q 567 40 567 40 L 0 40 Q 0 40 0 40 L 0 0 Q 0 0 0 0 Z"/><path fill="none" stroke="rgb(0,0,0)" d="M 0 0 M 0 0 L 567 0 Q 567 0 567 0 L 567 40 Q 567 40 567 40 L 0 40 Q 0 40 0 40 L 0 0 Q 0 0 0 0 Z" stroke-opacity="0" stroke-miterlimit="10" stroke-width="0"/></g></g></g></g></g><g transform="matrix(-0.002564094135141616,-0.9999967127052299,0.9999967127052299,-0.002564094135141616,23,641)"><g><g/></g><g><g/></g><g><g/></g><g><g/><text fill="rgb(0, 0, 0)" stroke="none" font-family="&quot;Arial&quot;" font-size="18px" font-style="normal" font-weight="normal" text-decoration="" line-height="20.5px" x="166.85000610351562" y="16.75">L</text><text fill="rgb(0, 0, 0)" stroke="none" font-family="&quot;Arial&quot;" font-size="18px" font-style="normal" font-weight="normal" text-decoration="" line-height="20.5px" x="176.86666870117188" y="16.75">e</text><text fill="rgb(0, 0, 0)" stroke="none" font-family="&quot;Arial&quot;" font-size="18px" font-style="normal" font-weight="normal" text-decoration="" line-height="20.5px" x="186.88333129882812" y="16.75">v</text><text fill="rgb(0, 0, 0)" stroke="none" font-family="&quot;Arial&quot;" font-size="18px" font-style="normal" font-weight="normal" text-decoration="" line-height="20.5px" x="195.88333129882812" y="16.75">e</text><text fill="rgb(0, 0, 0)" stroke="none" font-family="&quot;Arial&quot;" font-size="18px" font-style="normal" font-weight="normal" text-decoration="" line-height="20.5px" x="205.89999389648438" y="16.75">l</text><text fill="rgb(0, 0, 0)" stroke="none" font-family="&quot;Arial&quot;" font-size="18px" font-style="normal" font-weight="normal" text-decoration="" line-height="20.5px" x="214.89999389648438" y="16.75">A</text><text fill="rgb(0, 0, 0)" stroke="none" font-family="&quot;Arial&quot;" font-size="18px" font-style="normal" font-weight="normal" text-decoration="" line-height="20.5px" x="226.89999389648438" y="16.75">r</text><text fill="rgb(0, 0, 0)" stroke="none" font-family="&quot;Arial&quot;" font-size="18px" font-style="normal" font-weight="normal" text-decoration="" line-height="20.5px" x="232.89999389648438" y="16.75">c</text><text fill="rgb(0, 0, 0)" stroke="none" font-family="&quot;Arial&quot;" font-size="18px" font-style="normal" font-weight="normal" text-decoration="" line-height="20.5px" x="241.89999389648438" y="16.75">h</text><text fill="rgb(0, 0, 0)" stroke="none" font-family="&quot;Arial&quot;" font-size="18px" font-style="normal" font-weight="normal" text-decoration="" line-height="20.5px" x="251.9166717529297" y="16.75">i</text><text fill="rgb(0, 0, 0)" stroke="none" font-family="&quot;Arial&quot;" font-size="18px" font-style="normal" font-weight="normal" text-decoration="" line-height="20.5px" x="255.9166717529297" y="16.75">t</text><text fill="rgb(0, 0, 0)" stroke="none" font-family="&quot;Arial&quot;" font-size="18px" font-style="normal" font-weight="normal" text-decoration="" line-height="20.5px" x="260.91668701171875" y="16.75">e</text><text fill="rgb(0, 0, 0)" stroke="none" font-family="&quot;Arial&quot;" font-size="18px" font-style="normal" font-weight="normal" text-decoration="" line-height="20.5px" x="270.933349609375" y="16.75">c</text><text fill="rgb(0, 0, 0)" stroke="none" font-family="&quot;Arial&quot;" font-size="18px" font-style="normal" font-weight="normal" text-decoration="" line-height="20.5px" x="279.933349609375" y="16.75">t</text><text fill="rgb(0, 0, 0)" stroke="none" font-family="&quot;Arial&quot;" font-size="18px" font-style="normal" font-weight="normal" text-decoration="" line-height="20.5px" x="284.933349609375" y="16.75">u</text><text fill="rgb(0, 0, 0)" stroke="none" font-family="&quot;Arial&quot;" font-size="18px" font-style="normal" font-weight="normal" text-decoration="" line-height="20.5px" x="294.95001220703125" y="16.75">r</text><text fill="rgb(0, 0, 0)" stroke="none" font-family="&quot;Arial&quot;" font-size="18px" font-style="normal" font-weight="normal" text-decoration="" line-height="20.5px" x="300.95001220703125" y="16.75">a</text><text fill="rgb(0, 0, 0)" stroke="none" font-family="&quot;Arial&quot;" font-size="18px" font-style="normal" font-weight="normal" text-decoration="" line-height="20.5px" x="310.9666748046875" y="16.75">l</text><text fill="rgb(0, 0, 0)" stroke="none" font-family="&quot;Arial&quot;" font-size="18px" font-style="normal" font-weight="normal" text-decoration="" line-height="20.5px" x="319.9666748046875" y="16.75">T</text><text fill="rgb(0, 0, 0)" stroke="none" font-family="&quot;Arial&quot;" font-size="18px" font-style="normal" font-weight="normal" text-decoration="" line-height="20.5px" x="330.9666748046875" y="16.75">h</text><text fill="rgb(0, 0, 0)" stroke="none" font-family="&quot;Arial&quot;" font-size="18px" font-style="normal" font-weight="normal" text-decoration="" line-height="20.5px" x="340.98333740234375" y="16.75">i</text><text fill="rgb(0, 0, 0)" stroke="none" font-family="&quot;Arial&quot;" font-size="18px" font-style="normal" font-weight="normal" text-decoration="" line-height="20.5px" x="344.98333740234375" y="16.75">n</text><text fill="rgb(0, 0, 0)" stroke="none" font-family="&quot;Arial&quot;" font-size="18px" font-style="normal" font-weight="normal" text-decoration="" line-height="20.5px" x="355" y="16.75">k</text><text fill="rgb(0, 0, 0)" stroke="none" font-family="&quot;Arial&quot;" font-size="18px" font-style="normal" font-weight="normal" text-decoration="" line-height="20.5px" x="364" y="16.75">i</text><text fill="rgb(0, 0, 0)" stroke="none" font-family="&quot;Arial&quot;" font-size="18px" font-style="normal" font-weight="normal" text-decoration="" line-height="20.5px" x="368" y="16.75">n</text><text fill="rgb(0, 0, 0)" stroke="none" font-family="&quot;Arial&quot;" font-size="18px" font-style="normal" font-weight="normal" text-decoration="" line-height="20.5px" x="378.01666259765625" y="16.75">g</text></g></g><g transform="translate(0,0) matrix(1,0,0,1,63.5,656)"><g><g transform="translate(0,0) scale(5.663703543405438,0.4)"><g><path fill="#cccccc" stroke="none" d="M 0 0 L 100 0 Q 100 0 100 0 L 100 100 Q 100 100 100 100 L 0 100 Q 0 100 0 100 L 0 0 Q 0 0 0 0 Z"/><g transform="scale(0.17656291370764896,2.5)"><path fill="none" stroke="none" d="M 0 0 L 566.3703543405438 0 Q 566.3703543405438 0 566.3703543405438 0 L 566.3703543405438 40 Q 566.3703543405438 40 566.3703543405438 40 L 0 40 Q 0 40 0 40 L 0 0 Q 0 0 0 0 Z"/><path fill="none" stroke="rgb(0,0,0)" d="M 0 0 M 0 0 L 566.3703543405438 0 Q 566.3703543405438 0 566.3703543405438 0 L 566.3703543405438 40 Q 566.3703543405438 40 566.3703543405438 40 L 0 40 Q 0 40 0 40 L 0 0 Q 0 0 0 0 Z" stroke-opacity="0" stroke-miterlimit="10" stroke-width="0"/></g></g></g></g></g><g transform="matrix(1,0,0,1,70,666)"><g><g/></g><g><g/></g><g><g/></g><g><g/><text fill="rgb(0, 0, 0)" stroke="none" font-family="&quot;Arial&quot;" font-size="18px" font-style="normal" font-weight="normal" text-decoration="" line-height="20.5px" x="147" y="16.75">L</text><text fill="rgb(0, 0, 0)" stroke="none" font-family="&quot;Arial&quot;" font-size="18px" font-style="normal" font-weight="normal" text-decoration="" line-height="20.5px" x="157.01666259765625" y="16.75">e</text><text fill="rgb(0, 0, 0)" stroke="none" font-family="&quot;Arial&quot;" font-size="18px" font-style="normal" font-weight="normal" text-decoration="" line-height="20.5px" x="167.03334045410156" y="16.75">v</text><text fill="rgb(0, 0, 0)" stroke="none" font-family="&quot;Arial&quot;" font-size="18px" font-style="normal" font-weight="normal" text-decoration="" line-height="20.5px" x="176.03334045410156" y="16.75">e</text><text fill="rgb(0, 0, 0)" stroke="none" font-family="&quot;Arial&quot;" font-size="18px" font-style="normal" font-weight="normal" text-decoration="" line-height="20.5px" x="186.0500030517578" y="16.75">l</text><text fill="rgb(0, 0, 0)" stroke="none" font-family="&quot;Arial&quot;" font-size="18px" font-style="normal" font-weight="normal" text-decoration="" line-height="20.5px" x="195.0500030517578" y="16.75">I</text><text fill="rgb(0, 0, 0)" stroke="none" font-family="&quot;Arial&quot;" font-size="18px" font-style="normal" font-weight="normal" text-decoration="" line-height="20.5px" x="200.0500030517578" y="16.75">n</text><text fill="rgb(0, 0, 0)" stroke="none" font-family="&quot;Arial&quot;" font-size="18px" font-style="normal" font-weight="normal" text-decoration="" line-height="20.5px" x="210.06666564941406" y="16.75">t</text><text fill="rgb(0, 0, 0)" stroke="none" font-family="&quot;Arial&quot;" font-size="18px" font-style="normal" font-weight="normal" text-decoration="" line-height="20.5px" x="215.06666564941406" y="16.75">e</text><text fill="rgb(0, 0, 0)" stroke="none" font-family="&quot;Arial&quot;" font-size="18px" font-style="normal" font-weight="normal" text-decoration="" line-height="20.5px" x="225.0833282470703" y="16.75">g</text><text fill="rgb(0, 0, 0)" stroke="none" font-family="&quot;Arial&quot;" font-size="18px" font-style="normal" font-weight="normal" text-decoration="" line-height="20.5px" x="235.10000610351562" y="16.75">r</text><text fill="rgb(0, 0, 0)" stroke="none" font-family="&quot;Arial&quot;" font-size="18px" font-style="normal" font-weight="normal" text-decoration="" line-height="20.5px" x="241.10000610351562" y="16.75">a</text><text fill="rgb(0, 0, 0)" stroke="none" font-family="&quot;Arial&quot;" font-size="18px" font-style="normal" font-weight="normal" text-decoration="" line-height="20.5px" x="251.11666870117188" y="16.75">t</text><text fill="rgb(0, 0, 0)" stroke="none" font-family="&quot;Arial&quot;" font-size="18px" font-style="normal" font-weight="normal" text-decoration="" line-height="20.5px" x="256.1166687011719" y="16.75">i</text><text fill="rgb(0, 0, 0)" stroke="none" font-family="&quot;Arial&quot;" font-size="18px" font-style="normal" font-weight="normal" text-decoration="" line-height="20.5px" x="260.1166687011719" y="16.75">o</text><text fill="rgb(0, 0, 0)" stroke="none" font-family="&quot;Arial&quot;" font-size="18px" font-style="normal" font-weight="normal" text-decoration="" line-height="20.5px" x="270.1333312988281" y="16.75">n</text><text fill="rgb(0, 0, 0)" stroke="none" font-family="&quot;Arial&quot;" font-size="18px" font-style="normal" font-weight="normal" text-decoration="" line-height="20.5px" x="285.1499938964844" y="16.75">o</text><text fill="rgb(0, 0, 0)" stroke="none" font-family="&quot;Arial&quot;" font-size="18px" font-style="normal" font-weight="normal" text-decoration="" line-height="20.5px" x="295.16668701171875" y="16.75">f</text><text fill="rgb(0, 0, 0)" stroke="none" font-family="&quot;Arial&quot;" font-size="18px" font-style="normal" font-weight="normal" text-decoration="" line-height="20.5px" x="305.16668701171875" y="16.75">O</text><text fill="rgb(0, 0, 0)" stroke="none" font-family="&quot;Arial&quot;" font-size="18px" font-style="normal" font-weight="normal" text-decoration="" line-height="20.5px" x="319.16668701171875" y="16.75">r</text><text fill="rgb(0, 0, 0)" stroke="none" font-family="&quot;Arial&quot;" font-size="18px" font-style="normal" font-weight="normal" text-decoration="" line-height="20.5px" x="325.16668701171875" y="16.75">g</text><text fill="rgb(0, 0, 0)" stroke="none" font-family="&quot;Arial&quot;" font-size="18px" font-style="normal" font-weight="normal" text-decoration="" line-height="20.5px" x="335.183349609375" y="16.75">a</text><text fill="rgb(0, 0, 0)" stroke="none" font-family="&quot;Arial&quot;" font-size="18px" font-style="normal" font-weight="normal" text-decoration="" line-height="20.5px" x="345.20001220703125" y="16.75">n</text><text fill="rgb(0, 0, 0)" stroke="none" font-family="&quot;Arial&quot;" font-size="18px" font-style="normal" font-weight="normal" text-decoration="" line-height="20.5px" x="355.2166748046875" y="16.75">i</text><text fill="rgb(0, 0, 0)" stroke="none" font-family="&quot;Arial&quot;" font-size="18px" font-style="normal" font-weight="normal" text-decoration="" line-height="20.5px" x="359.2166748046875" y="16.75">s</text><text fill="rgb(0, 0, 0)" stroke="none" font-family="&quot;Arial&quot;" font-size="18px" font-style="normal" font-weight="normal" text-decoration="" line-height="20.5px" x="368.2166748046875" y="16.75">a</text><text fill="rgb(0, 0, 0)" stroke="none" font-family="&quot;Arial&quot;" font-size="18px" font-style="normal" font-weight="normal" text-decoration="" line-height="20.5px" x="378.23333740234375" y="16.75">t</text><text fill="rgb(0, 0, 0)" stroke="none" font-family="&quot;Arial&quot;" font-size="18px" font-style="normal" font-weight="normal" text-decoration="" line-height="20.5px" x="383.23333740234375" y="16.75">i</text><text fill="rgb(0, 0, 0)" stroke="none" font-family="&quot;Arial&quot;" font-size="18px" font-style="normal" font-weight="normal" text-decoration="" line-height="20.5px" x="387.23333740234375" y="16.75">o</text><text fill="rgb(0, 0, 0)" stroke="none" font-family="&quot;Arial&quot;" font-size="18px" font-style="normal" font-weight="normal" text-decoration="" line-height="20.5px" x="397.25" y="16.75">n</text></g></g><g transform="matrix(1,0,0,1,249,385)"><g><g/></g><g><g/></g><g><g/></g><g><g/><text fill="rgb(217, 217, 217)" stroke="none" font-family="&quot;Helvetica&quot;" font-size="48px" font-style="normal" font-weight="normal" text-decoration="" line-height="48px" x="26.73333740234375" y="40.5">P</text></g></g><g transform="matrix(1,0,0,1,542,385)"><g><g/></g><g><g/></g><g><g/></g><g><g/><text fill="rgb(217, 217, 217)" stroke="none" font-family="&quot;Helvetica&quot;" font-size="48px" font-style="normal" font-weight="normal" text-decoration="" line-height="48px" x="28.083328247070312" y="40.5">F</text></g></g><g transform="matrix(1,0,0,1,82,109)"><g><g/></g><g><g/></g><g><g/><text fill="rgb(255, 255, 255)" stroke="none" font-family="&quot;Arial&quot;" font-size="24px" font-style="normal" font-weight="700" text-decoration="" line-height="27px" x="0" y="21.5">(</text><text fill="rgb(255, 255, 255)" stroke="none" font-family="&quot;Arial&quot;" font-size="24px" font-style="normal" font-weight="700" text-decoration="" line-height="27px" x="8" y="21.5">EA</text><text fill="rgb(255, 255, 255)" stroke="none" font-family="&quot;Arial&quot;" font-size="24px" font-style="normal" font-weight="700" text-decoration="" line-height="27px" x="41.33332824707031" y="21.5">)</text></g></g><g transform="matrix(1,0,0,1,372,398)"><g><g/></g><g><g/></g><g><g/><text fill="rgb(255, 255, 255)" stroke="none" font-family="&quot;Arial&quot;" font-size="24px" font-style="normal" font-weight="700" text-decoration="" line-height="27px" x="0" y="21.5">(</text><text fill="rgb(255, 255, 255)" stroke="none" font-family="&quot;Arial&quot;" font-size="24px" font-style="normal" font-weight="700" text-decoration="" line-height="27px" x="8" y="21.5">SA</text><text fill="rgb(255, 255, 255)" stroke="none" font-family="&quot;Arial&quot;" font-size="24px" font-style="normal" font-weight="700" text-decoration="" line-height="27px" x="41.33332824707031" y="21.5">)</text></g></g></g></svg>